<?xml version="1.0" standalone="no"?>
<!DOCTYPE svg PUBLIC "-//W3C//DTD SVG 20010904//EN"
 "http://www.w3.org/TR/2001/REC-SVG-20010904/DTD/svg10.dtd">
<svg version="1.0" xmlns="http://www.w3.org/2000/svg"
 width="512.000000pt" height="512.000000pt" viewBox="0 0 512.000000 512.000000"
 preserveAspectRatio="xMidYMid meet">
<metadata>
Created by potrace 1.14, written by Peter Selinger 2001-2017
</metadata>
<g transform="translate(0.000000,512.000000) scale(0.100000,-0.100000)"
fill="#000000" stroke="none">
<path d="M1165 4048 c-83 -6 -130 -13 -225 -33 -3 -1 -23 -5 -45 -10 -48 -10
-151 -51 -225 -91 -103 -55 -185 -118 -285 -218 -184 -185 -299 -397 -357
-656 -21 -95 -23 -129 -23 -365 0 -181 4 -281 14 -330 89 -451 399 -823 816
-978 75 -28 212 -63 285 -72 97 -11 466 -15 510 -4 25 6 52 12 60 14 73 15
185 76 377 202 236 155 320 191 463 198 167 8 265 -29 525 -200 317 -208 376
-227 690 -221 116 3 219 7 230 9 11 3 40 8 65 11 76 10 198 40 228 55 10 5 57
26 105 47 370 157 666 549 731 967 15 100 19 468 5 565 -18 129 -21 139 -71
282 -107 302 -338 568 -618 708 -93 47 -205 86 -284 98 -21 3 -47 7 -58 9 -11
3 -46 7 -77 11 -75 9 -2709 11 -2836 2z"/>
</g>
</svg>
